<svg aria-hidden="true" style="position: absolute; width: 0; height: 0; overflow: hidden;" version="1.1" xmlns="http://www.w3.org/2000/svg" xmlns:xlink="http://www.w3.org/1999/xlink">
<defs>
<symbol id="icon-burger-btn" viewBox="0 0 64 32">
<path fill="none" stroke="#7e847f" style="stroke: var(--color1, #7e847f)" stroke-linejoin="round" stroke-linecap="round" stroke-miterlimit="4" stroke-width="4" d="M56 20.667h-48"></path>
<path fill="none" stroke="#7e847f" style="stroke: var(--color1, #7e847f)" stroke-linejoin="round" stroke-linecap="round" stroke-miterlimit="4" stroke-width="4" d="M56 10h-48"></path>
</symbol>
<symbol id="icon-arrow-right" viewBox="0 0 32 32">
<path stroke-linejoin="round" stroke-linecap="butt" stroke-miterlimit="4" stroke-width="2.6" d="M15 28l13-13-13-13M2 15h26"></path>
</symbol>
<symbol id="icon-dumbbell-black" viewBox="0 0 32 32">
<path d="M7.36 9.143h-1.92c-0.532 0-0.96 0.459-0.96 1.029v4.457h-0.96c-0.176 0-0.32 0.154-0.32 0.343v2.057c0 0.188 0.144 0.343 0.32 0.343h0.96v4.457c0 0.57 0.428 1.028 0.96 1.028h1.92c0.532 0 0.96-0.459 0.96-1.028v-11.657c0-0.57-0.428-1.029-0.96-1.029zM28.48 14.629h-0.96v-4.457c0-0.57-0.428-1.029-0.96-1.029h-1.92c-0.532 0-0.96 0.459-0.96 1.029v11.657c0 0.57 0.428 1.028 0.96 1.028h1.92c0.532 0 0.96-0.459 0.96-1.028v-4.457h0.96c0.176 0 0.32-0.154 0.32-0.343v-2.057c0-0.189-0.144-0.343-0.32-0.343zM21.44 6.4h-1.92c-0.532 0-0.96 0.459-0.96 1.029v7.2h-5.12v-7.2c0-0.57-0.428-1.029-0.96-1.029h-1.92c-0.532 0-0.96 0.459-0.96 1.029v17.143c0 0.57 0.428 1.029 0.96 1.029h1.92c0.532 0 0.96-0.459 0.96-1.029v-7.2h5.12v7.2c0 0.57 0.428 1.029 0.96 1.029h1.92c0.532 0 0.96-0.459 0.96-1.029v-17.143c0-0.57-0.428-1.029-0.96-1.029z"></path>
</symbol>
<symbol id="icon-dumbbell" viewBox="0 0 32 32">
<path fill="#f6f6f6" style="fill: var(--color2, #f6f6f6)" d="M7.359 9.143h-1.919c-0.533 0-0.961 0.459-0.961 1.029v4.457h-0.959c-0.177 0-0.32 0.154-0.32 0.343v2.057c0 0.189 0.144 0.343 0.32 0.343h0.959v4.457c0 0.57 0.428 1.029 0.961 1.029h1.919c0.533 0 0.961-0.459 0.961-1.029v-11.657c0-0.57-0.428-1.029-0.961-1.029zM28.48 14.629h-0.959v-4.457c0-0.57-0.428-1.029-0.961-1.029h-1.919c-0.533 0-0.961 0.459-0.961 1.029v11.657c0 0.57 0.428 1.029 0.961 1.029h1.919c0.533 0 0.961-0.459 0.961-1.029v-4.457h0.959c0.177 0 0.32-0.154 0.32-0.343v-2.057c0-0.189-0.144-0.343-0.32-0.343zM21.441 6.4h-1.92c-0.533 0-0.961 0.459-0.961 1.029v7.2h-5.119v-7.2c0-0.57-0.428-1.029-0.961-1.029h-1.92c-0.531 0-0.959 0.459-0.959 1.029v17.143c0 0.57 0.428 1.028 0.959 1.028h1.92c0.533 0 0.961-0.459 0.961-1.028v-7.2h5.119v7.2c0 0.57 0.428 1.028 0.961 1.028h1.92c0.531 0 0.959-0.459 0.959-1.028v-17.143c0-0.57-0.428-1.029-0.959-1.029z"></path>
</symbol>
<symbol id="icon-running-men" viewBox="0 0 29 32">
<path fill="#f6f6f6" style="fill: var(--color2, #f6f6f6)" d="M28.367 9.451c-0.43-0.501-1.194-0.567-1.706-0.149l-3.359 2.757-1.544-3.739c-0.056-0.14-0.139-0.258-0.234-0.362-0.316-0.686-0.864-1.275-1.619-1.617-0.328-0.146-0.667-0.224-1.006-0.262-0.075-0.038-0.142-0.088-0.227-0.114l-5.911-1.61c-0.331-0.088-0.666-0.031-0.939 0.125-0.323 0.107-0.603 0.338-0.736 0.672l-2.225 5.592c-0.241 0.608 0.067 1.294 0.692 1.534 0.62 0.236 1.323-0.068 1.567-0.678l1.88-4.722 2.692 0.731c-0.066 0.104-0.136 0.201-0.189 0.312l-3.452 7.309c-0.050 0.107-0.077 0.217-0.113 0.328l-4.194 6.871-7.019 2.294c-0.795 0.58-0.964 1.674-0.377 2.45 0.591 0.778 1.712 0.943 2.506 0.369l7.183-2.417c0.219-0.156 0.378-0.36 0.5-0.58 0.091-0.094 0.192-0.168 0.262-0.284l2.5-4.096 4.439 3.696-4.75 5.23c-0.653 0.721-0.588 1.832 0.153 2.469 0.739 0.643 1.873 0.575 2.531-0.149l5.927-6.524c0.184-0.201 0.294-0.433 0.369-0.676 0.044-0.132 0.044-0.269 0.055-0.405 0-0.069 0.027-0.132 0.022-0.196-0.017-0.478-0.216-0.943-0.616-1.274l-4.084-3.403c0.294-0.274 0.544-0.6 0.725-0.983l2.647-5.599 0.847 2.206c0.036 0.196 0.103 0.388 0.245 0.549 0.127 0.149 0.291 0.248 0.464 0.317 0.017 0.009 0.039 0.010 0.061 0.016 0.109 0.038 0.222 0.075 0.336 0.080 0.138 0.012 0.275-0.005 0.416-0.043 0.003-0.002 0.005-0.002 0.005-0.002 0.038-0.009 0.075-0.002 0.112-0.017 0.197-0.073 0.347-0.196 0.477-0.34l4.82-3.998c0.512-0.421 0.297-1.166-0.134-1.667z"></path>
<path fill="#f6f6f6" style="fill: var(--color2, #f6f6f6)" d="M25.648 3.301c0 1.823-1.512 3.301-3.378 3.301s-3.378-1.478-3.378-3.301 1.512-3.301 3.378-3.301c1.866 0 3.378 1.478 3.378 3.301z"></path>
</symbol>
<symbol id="icon-heart" viewBox="0 0 32 32">
<path fill="none" stroke="#f6f6f6" style="stroke: var(--color2, #f6f6f6)" stroke-linejoin="round" stroke-linecap="butt" stroke-miterlimit="4" stroke-width="2.4" d="M25.408 4.556c-0.891-0.369-1.844-0.559-2.808-0.559-0.963 0-1.917 0.19-2.806 0.559-0.891 0.369-1.698 0.909-2.38 1.591l-1.414 1.413-1.412-1.413c-1.375-1.376-3.242-2.148-5.188-2.148s-3.811 0.773-5.186 2.148c-1.375 1.376-2.148 3.241-2.148 5.187s0.773 3.811 2.148 5.187l11.786 11.787 11.788-11.787c0.681-0.681 1.222-1.49 1.591-2.38s0.558-1.844 0.558-2.807c0-0.963-0.189-1.917-0.558-2.807s-0.909-1.699-1.591-2.38c-0.681-0.681-1.489-1.222-2.38-1.591z"></path>
</symbol>
<symbol id="icon-arrow-up" viewBox="0 0 33 32">
<path fill="#f6f6f6" style="fill: var(--color2, #f6f6f6)" d="M18.128 5.569v26.276h-2.795v-26.276l-13.138 13.138-1.977-1.977 16.513-16.512 16.512 16.512-1.977 1.977-13.138-13.138z"></path>
</symbol>
<symbol id="icon-trash-can" viewBox="0 0 29 32">
<path stroke-linejoin="round" stroke-linecap="butt" stroke-miterlimit="4" stroke-width="2.8428" d="M8.71 7.253v-1.166c0-1.633 0-2.449 0.318-3.073 0.279-0.549 0.726-0.995 1.274-1.274 0.624-0.318 1.44-0.318 3.073-0.318h2.333c1.633 0 2.449 0 3.073 0.318 0.548 0.28 0.995 0.726 1.274 1.274 0.318 0.624 0.318 1.44 0.318 3.073v1.166M11.626 15.271v7.289M17.457 15.271v7.289M1.421 7.253h26.241M24.747 7.253v16.328c0 2.449 0 3.674-0.477 4.61-0.42 0.823-1.089 1.492-1.911 1.911-0.936 0.477-2.161 0.477-4.61 0.477h-6.414c-2.449 0-3.674 0-4.61-0.477-0.823-0.419-1.492-1.088-1.911-1.911-0.477-0.936-0.477-2.16-0.477-4.61v-16.328"></path>
</symbol>
<symbol id="icon-facebook" viewBox="0 0 32 32">
<path fill="#7e847f" style="fill: var(--color1, #7e847f)" opacity="0.8" d="M19.52 4.64c0.24 0 0.48 0 0.96 0v3.6c-0.24 0-0.72 0-1.2 0s-0.96 0-1.2 0.24c-0.24 0.24-0.24 0.48-0.24 1.040 0 0.48 0 0.8 0 1.28h2.639v3.040h-2.639v13.2h-4.080v-13.28h-2.16v-3.040h2.16v-1.040c0-1.76 0.24-3.040 0.72-3.6 0.721-1.040 2.161-1.52 4.32-1.52 0.24 0.080 0.48 0.080 0.72 0.080z"></path>
</symbol>
<symbol id="icon-instagram" viewBox="0 0 32 32">
<path fill="#7e847f" style="fill: var(--color1, #7e847f)" opacity="0.8" d="M28.718 10.756c-0.016-1.074-0.215-2.14-0.596-3.145-0.666-1.716-2.024-3.073-3.743-3.737-0.993-0.373-2.044-0.573-3.107-0.596-1.367-0.061-1.801-0.078-5.272-0.078-3.472 0-3.917 0-5.275 0.078-1.063 0.023-2.113 0.223-3.106 0.596-1.719 0.664-3.078 2.021-3.743 3.737-0.374 0.992-0.576 2.041-0.596 3.101-0.060 1.367-0.079 1.8-0.079 5.265s0 3.909 0.079 5.265c0.021 1.062 0.222 2.109 0.596 3.104 0.666 1.714 2.025 3.071 3.744 3.735 0.99 0.386 2.040 0.604 3.106 0.639 1.369 0.061 1.802 0.080 5.275 0.080 3.471 0 3.916 0 5.274-0.080 1.062-0.021 2.113-0.221 3.108-0.595 1.719-0.666 3.076-2.022 3.743-3.737 0.374-0.994 0.574-2.041 0.595-3.104 0.061-1.365 0.080-1.798 0.080-5.265-0.003-3.466-0.003-3.906-0.083-5.264zM15.99 22.531c-3.63 0-6.573-2.936-6.573-6.561s2.942-6.561 6.573-6.561c3.627 0 6.571 2.936 6.571 6.561s-2.944 6.561-6.571 6.561zM22.824 10.696c-0.849 0-1.532-0.684-1.532-1.53s0.683-1.53 1.532-1.53c0.846 0 1.531 0.684 1.531 1.53s-0.685 1.53-1.531 1.53z"></path>
<path fill="#7e847f" style="fill: var(--color1, #7e847f)" opacity="0.8" d="M19.996 15.972c0 2.211-1.792 4.004-4.003 4.004-2.212 0-4.004-1.793-4.004-4.004s1.792-4.004 4.004-4.004c2.211 0 4.003 1.793 4.003 4.004z"></path>
</symbol>
<symbol id="icon-youtube" viewBox="0 0 32 32">
<path fill="#7e847f" style="fill: var(--color1, #7e847f)" opacity="0.8" d="M24.24 6c-1.359-0.080-4.16-0.16-8.4-0.16h-0.56c-4.079 0-6.8 0.080-8.16 0.24-1.84 0.16-3.121 0.64-3.84 1.28-0.639 0.56-1.119 1.6-1.28 2.96-0.079 0.88-0.16 2.72-0.16 5.52v0.4c0 2.64 0.080 4.48 0.24 5.36 0.24 1.28 0.641 2.24 1.44 2.8 0.8 0.64 2.161 1.040 4.080 1.2 1.361 0.080 4.16 0.16 8.4 0.16h0.56c4.080 0 6.8-0.080 8.161-0.24 1.839-0.16 3.119-0.64 3.839-1.28 0.641-0.56 1.121-1.6 1.28-2.96 0.080-0.88 0.16-2.72 0.16-5.52v-0.4c0-2.64-0.079-4.48-0.24-5.36-0.24-1.28-0.639-2.24-1.44-2.8-0.8-0.64-2.16-1.040-4.080-1.2zM21.121 15.84l-8.8 5.28v-10.56l8.8 5.28z"></path>
</symbol>
<symbol id="icon-inverted-commas" viewBox="0 0 32 32">
<path fill="#f6f6f6" style="fill: var(--color2, #f6f6f6)" d="M8.201 17.468c1.546-0.612 2.785-0.452 3.719 0.481s1.21 2.421 0.831 4.462c-0.292 1.517-0.934 2.683-1.925 3.5-0.963 0.788-2.085 1.181-3.369 1.181-1.75 0-2.96-0.671-3.631-2.012-0.671-1.371-0.802-3.208-0.394-5.513 0.233-1.254 0.613-2.523 1.137-3.806s1.225-2.596 2.1-3.937 2.012-2.508 3.412-3.5c1.4-0.992 2.946-1.633 4.638-1.925l-0.438 4.637c-1.43 0.292-2.698 1.035-3.807 2.231-1.108 1.167-1.867 2.567-2.275 4.2zM21.37 17.468c1.546-0.612 2.785-0.452 3.719 0.481s1.21 2.421 0.831 4.462c-0.292 1.517-0.934 2.683-1.925 3.5-0.962 0.788-2.085 1.181-3.368 1.181-1.75 0-2.961-0.671-3.632-2.012-0.671-1.371-0.802-3.208-0.394-5.513 0.234-1.254 0.613-2.523 1.137-3.806s1.225-2.596 2.1-3.937 2.012-2.508 3.413-3.5c1.4-0.992 2.945-1.633 4.637-1.925l-0.437 4.637c-1.429 0.292-2.698 1.035-3.807 2.231-1.108 1.167-1.867 2.567-2.275 4.2z"></path>
</symbol>
<symbol id="icon-logo" viewBox="0 0 160 32">
<path d="M9.126 25.439c-1.491 0-2.813-0.318-3.966-0.954s-2.058-1.531-2.714-2.684c-0.656-1.153-0.984-2.485-0.984-3.996 0-1.531 0.318-2.893 0.954-4.086 0.656-1.193 1.551-2.117 2.684-2.774 1.153-0.676 2.505-1.014 4.056-1.014 1.451 0 2.734 0.318 3.847 0.954s1.978 1.511 2.595 2.624c0.636 1.094 0.954 2.316 0.954 3.668 0 0.219-0.010 0.447-0.030 0.686 0 0.239-0.010 0.487-0.030 0.746h-11.243c0.080 1.153 0.477 2.058 1.193 2.714 0.736 0.656 1.62 0.984 2.654 0.984 0.775 0 1.422-0.169 1.938-0.507 0.537-0.358 0.934-0.815 1.193-1.372h3.877c-0.278 0.934-0.746 1.789-1.402 2.565-0.636 0.755-1.431 1.352-2.386 1.789-0.934 0.437-1.998 0.656-3.191 0.656zM9.156 13.033c-0.934 0-1.76 0.268-2.475 0.805-0.716 0.517-1.173 1.312-1.372 2.386h7.366c-0.060-0.974-0.418-1.75-1.074-2.326s-1.471-0.865-2.445-0.865zM19.166 25.081v-14.792h3.37l0.298 2.505c0.457-0.875 1.113-1.571 1.968-2.088 0.875-0.517 1.899-0.775 3.072-0.775 1.829 0 3.251 0.577 4.265 1.73s1.521 2.843 1.521 5.070v8.35h-3.817v-7.993c0-1.272-0.259-2.247-0.775-2.923s-1.322-1.014-2.416-1.014c-1.074 0-1.958 0.378-2.654 1.133-0.676 0.755-1.014 1.809-1.014 3.161v7.635h-3.817zM43.901 25.439c-1.491 0-2.813-0.318-3.966-0.954s-2.058-1.531-2.714-2.684-0.984-2.485-0.984-3.996c0-1.531 0.318-2.893 0.954-4.086 0.656-1.193 1.551-2.117 2.684-2.774 1.153-0.676 2.505-1.014 4.056-1.014 1.451 0 2.734 0.318 3.847 0.954s1.978 1.511 2.595 2.624c0.636 1.094 0.954 2.316 0.954 3.668 0 0.219-0.010 0.447-0.030 0.686 0 0.239-0.010 0.487-0.030 0.746h-11.243c0.080 1.153 0.477 2.058 1.193 2.714 0.736 0.656 1.62 0.984 2.654 0.984 0.775 0 1.422-0.169 1.938-0.507 0.537-0.358 0.935-0.815 1.193-1.372h3.877c-0.278 0.934-0.746 1.789-1.402 2.565-0.636 0.755-1.431 1.352-2.386 1.789-0.934 0.437-1.998 0.656-3.191 0.656zM43.931 13.033c-0.934 0-1.76 0.268-2.475 0.805-0.716 0.517-1.173 1.312-1.372 2.386h7.366c-0.060-0.974-0.418-1.75-1.074-2.326s-1.471-0.865-2.445-0.865zM53.941 25.081v-14.792h3.4l0.358 2.774c0.537-0.954 1.262-1.71 2.177-2.267 0.934-0.577 2.028-0.865 3.281-0.865v4.026h-1.074c-0.835 0-1.581 0.129-2.237 0.388s-1.173 0.706-1.551 1.342c-0.358 0.636-0.537 1.521-0.537 2.654v6.74h-3.817zM71.082 20.667c-0.716 0-1.382-0.080-1.998-0.239l-1.103 1.103c0.338 0.179 0.795 0.328 1.372 0.447s1.511 0.239 2.803 0.358c1.968 0.179 3.4 0.646 4.294 1.402s1.342 1.799 1.342 3.131c0 0.875-0.239 1.7-0.716 2.475-0.477 0.795-1.213 1.431-2.207 1.909-0.994 0.497-2.267 0.746-3.817 0.746-2.107 0-3.807-0.398-5.1-1.193-1.292-0.775-1.939-1.948-1.939-3.519 0-1.332 0.646-2.485 1.939-3.459-0.398-0.179-0.746-0.368-1.044-0.567-0.278-0.199-0.527-0.408-0.746-0.626v-0.686l2.595-2.744c-1.153-1.014-1.73-2.316-1.73-3.907 0-0.994 0.239-1.899 0.716-2.714 0.497-0.815 1.193-1.461 2.088-1.938s1.978-0.716 3.251-0.716c0.835 0 1.61 0.119 2.326 0.358h5.607v2.326l-2.535 0.179c0.398 0.755 0.596 1.591 0.596 2.505 0 0.994-0.239 1.899-0.716 2.714s-1.173 1.461-2.088 1.939c-0.895 0.477-1.958 0.716-3.191 0.716zM71.082 17.745c0.775 0 1.412-0.209 1.909-0.626 0.517-0.418 0.775-1.014 0.775-1.789s-0.258-1.372-0.775-1.789c-0.497-0.418-1.133-0.626-1.909-0.626-0.815 0-1.471 0.209-1.968 0.626s-0.746 1.014-0.746 1.789 0.249 1.372 0.746 1.789c0.497 0.418 1.153 0.626 1.968 0.626zM67.503 26.9c0 0.736 0.338 1.282 1.014 1.64 0.696 0.378 1.541 0.567 2.535 0.567 0.954 0 1.73-0.199 2.326-0.596 0.596-0.378 0.895-0.895 0.895-1.551 0-0.537-0.199-0.984-0.596-1.342-0.378-0.358-1.143-0.577-2.296-0.656-0.815-0.060-1.571-0.149-2.267-0.268-0.577 0.318-0.994 0.666-1.253 1.044-0.239 0.378-0.358 0.765-0.358 1.163zM83.051 31.642l3.43-7.545h-0.895l-5.756-13.808h4.145l4.145 10.408 4.324-10.408h4.056l-9.394 21.353h-4.056zM97.769 25.29c-0.696 0-1.272-0.219-1.73-0.656-0.437-0.437-0.656-0.964-0.656-1.581 0-0.636 0.219-1.173 0.656-1.61 0.457-0.437 1.034-0.656 1.73-0.656s1.262 0.219 1.7 0.656c0.457 0.437 0.686 0.974 0.686 1.61 0 0.616-0.229 1.143-0.686 1.581-0.437 0.437-1.004 0.656-1.7 0.656zM103.383 25.081v-11.601h-2.028v-3.191h2.028v-1.73c0-1.789 0.447-3.062 1.342-3.817 0.915-0.756 2.148-1.133 3.699-1.133h1.64v3.251h-1.044c-0.656 0-1.124 0.129-1.402 0.388-0.279 0.258-0.418 0.696-0.418 1.312v1.73h3.191v3.191h-3.191v11.601h-3.818zM113.404 25.081v-21.473h3.817v21.473h-3.817zM127.634 25.439c-1.431 0-2.723-0.328-3.877-0.984-1.133-0.656-2.038-1.561-2.714-2.714-0.656-1.173-0.984-2.525-0.984-4.056s0.338-2.873 1.014-4.026c0.676-1.173 1.581-2.088 2.714-2.744 1.153-0.656 2.445-0.984 3.877-0.984 1.411 0 2.684 0.328 3.817 0.984 1.154 0.656 2.058 1.571 2.714 2.744 0.676 1.153 1.014 2.495 1.014 4.026s-0.338 2.883-1.014 4.056c-0.656 1.153-1.56 2.058-2.714 2.714s-2.436 0.984-3.847 0.984zM127.634 22.129c0.994 0 1.859-0.368 2.595-1.103 0.736-0.755 1.103-1.869 1.103-3.34s-0.367-2.575-1.103-3.31c-0.736-0.755-1.59-1.133-2.565-1.133-1.014 0-1.888 0.378-2.624 1.133-0.716 0.736-1.074 1.839-1.074 3.31s0.358 2.585 1.074 3.34c0.736 0.736 1.601 1.103 2.595 1.103zM140.394 25.081l-4.324-14.792h3.787l2.565 10.647 2.982-10.647h4.235l2.982 10.647 2.595-10.647h3.787l-4.354 14.792h-3.966l-3.161-11.064-3.161 11.064h-3.966z"></path>
</symbol>
<symbol id="icon-search" viewBox="0 0 32 32">
<path stroke-linejoin="round" stroke-linecap="butt" stroke-miterlimit="4" stroke-width="2.6667" d="M14.667 25.333c-5.891 0-10.667-4.776-10.667-10.667s4.776-10.667 10.667-10.667c5.891 0 10.667 4.776 10.667 10.667s-4.776 10.667-10.667 10.667z"></path>
<path stroke-linejoin="round" stroke-linecap="round" stroke-miterlimit="4" stroke-width="2.6667" d="M28 28l-5.8-5.8"></path>
</symbol>
<symbol id="icon-x" viewBox="0 0 32 32">
<path stroke-linejoin="round" stroke-linecap="butt" stroke-miterlimit="4" stroke-width="2.6667" d="M22.667 9.333l-13.333 13.333M9.333 9.333l13.333 13.333"></path>
</symbol>
</defs>
</svg>
