<?xml version="1.0" standalone="no"?>
<!DOCTYPE svg PUBLIC "-//W3C//DTD SVG 20010904//EN"
 "http://www.w3.org/TR/2001/REC-SVG-20010904/DTD/svg10.dtd">
<svg version="1.0" xmlns="http://www.w3.org/2000/svg"
 width="115.000000pt" height="115.000000pt" viewBox="0 0 115.000000 115.000000"
 preserveAspectRatio="xMidYMid meet">
<metadata>
Created by potrace 1.14, written by Peter Selinger 2001-2017
</metadata>
<g transform="translate(0.000000,115.000000) scale(0.100000,-0.100000)"
fill="#000000" stroke="none">
<path d="M154 918 c-4 -6 -7 -38 -7 -70 l0 -58 -31 0 c-17 0 -50 0 -73 -1
l-41 -2 0 -211 c0 -131 4 -216 10 -223 6 -8 35 -13 73 -13 l62 0 2 -51 c0 -28
3 -55 6 -60 9 -14 142 -11 152 4 4 6 8 71 8 142 l0 130 258 0 c225 1 257 -1
258 -15 0 -8 2 -67 2 -130 1 -63 6 -121 10 -127 9 -15 142 -18 151 -5 12 19
14 92 3 92 -8 0 -8 3 0 11 5 5 40 10 76 10 53 0 67 3 71 17 8 26 5 422 -2 423
-4 0 -16 3 -27 5 -11 3 -40 6 -65 7 l-45 2 -1 52 c-2 81 -4 83 -83 83 -56 0
-70 -3 -77 -17 -4 -10 -8 -70 -9 -133 -1 -63 -3 -120 -4 -125 -1 -7 -88 -11
-258 -10 l-258 0 -1 125 c-1 69 -2 132 -3 142 -1 13 -14 16 -76 17 -46 0 -77
-4 -81 -11z"/>
</g>
</svg>
